<?xml version="1.0" encoding="utf-8"?>
<!-- Generator: Adobe Illustrator 16.0.0, SVG Export Plug-In . SVG Version: 6.00 Build 0)  -->
<!DOCTYPE svg PUBLIC "-//W3C//DTD SVG 1.1//EN" "http://www.w3.org/Graphics/SVG/1.1/DTD/svg11.dtd">
<svg version="1.1" xmlns="http://www.w3.org/2000/svg" xmlns:xlink="http://www.w3.org/1999/xlink" x="0px" y="0px" width="1592px"
	 height="634px" viewBox="0 0 1592 634" enable-background="new 0 0 1592 634" xml:space="preserve">
<g id="box">
</g>
<g id="fj">
	<g>
		<rect x="6.174" y="294.027" fill="#F7F8F8" width="126.297" height="106.977"/>
		<text transform="matrix(1 0 0 1 52.6157 342.5146)"><tspan x="0" y="0" font-family="'MicrosoftYaHei'" font-size="14">B919</tspan><tspan x="-25.293" y="21" font-family="'MicrosoftYaHei'" font-size="14">工程部会议室</tspan></text>
	</g>
	<g>
		<rect x="136.299" y="294.027" fill="#F7F8F8" width="79.403" height="106.977"/>
		<text transform="matrix(1 0 0 1 159.2935 342.5146)"><tspan x="0" y="0" font-family="'MicrosoftYaHei'" font-size="14">B917</tspan><tspan x="2.707" y="21" font-family="'MicrosoftYaHei'" font-size="14">库房</tspan></text>
	</g>
	<g>
		<rect x="408.324" y="294.027" fill="#F7F8F8" width="165" height="109.439"/>
		<text transform="matrix(1 0 0 1 474.1167 342.5146)"><tspan x="0" y="0" font-family="'MicrosoftYaHei'" font-size="14">B915</tspan><tspan x="-46.293" y="21" font-family="'MicrosoftYaHei'" font-size="14">安全生产监督管理部</tspan></text>
	</g>
	<g>
		<rect x="578.03" y="294.027" fill="#F7F8F8" width="167.293" height="109.439"/>
		<text transform="matrix(1 0 0 1 644.9702 342.5146)"><tspan x="0" y="0" font-family="'MicrosoftYaHei'" font-size="14">B913</tspan><tspan x="-18.293" y="21" font-family="'MicrosoftYaHei'" font-size="14">监察审计部</tspan></text>
	</g>
	<g>
		<rect x="750.143" y="294.027" fill="#F7F8F8" width="93.767" height="106.977"/>
		<text transform="matrix(1 0 0 1 780.3193 342.5146)"><tspan x="0" y="0" font-family="'MicrosoftYaHei'" font-size="14">B911</tspan><tspan x="-4.293" y="21" font-family="'MicrosoftYaHei'" font-size="14">会议室</tspan></text>
	</g>
	<g>
		<rect x="1488.209" y="294.027" fill="#F7F8F8" width="96.643" height="106.977"/>
		<text transform="matrix(1 0 0 1 1519.8232 342.5146)"><tspan x="0" y="0" font-family="'MicrosoftYaHei'" font-size="14">B901</tspan><tspan x="-4.293" y="21" font-family="'MicrosoftYaHei'" font-size="14">审计室</tspan></text>
	</g>
	<g>
		<rect x="913.047" y="294.027" fill="#F7F8F8" width="81.713" height="109.375"/>
		<text transform="matrix(1 0 0 1 937.1953 332.0146)"><tspan x="0" y="0" font-family="'MicrosoftYaHei'" font-size="14">B909</tspan><tspan x="-4.293" y="21" font-family="'MicrosoftYaHei'" font-size="14">计划部</tspan><tspan x="-4.293" y="42" font-family="'MicrosoftYaHei'" font-size="14">资料室</tspan></text>
	</g>
	<g>
		<rect x="1417.189" y="294.027" fill="#F7F8F8" width="66.092" height="106.977"/>
		<text transform="matrix(1 0 0 1 1433.5283 332.0146)"><tspan x="0" y="0" font-family="'MicrosoftYaHei'" font-size="14">B903</tspan><tspan x="-4.293" y="21" font-family="'MicrosoftYaHei'" font-size="14">战备规</tspan><tspan x="2.707" y="42" font-family="'MicrosoftYaHei'" font-size="14">划室</tspan></text>
	</g>
	<g>
		<rect x="1083.705" y="294.027" fill="#F7F8F8" width="154.705" height="109.375"/>
		<text transform="matrix(1 0 0 1 1144.3496 342.5146)"><tspan x="0" y="0" font-family="'MicrosoftYaHei'" font-size="14">B905</tspan><tspan x="-18.293" y="21" font-family="'MicrosoftYaHei'" font-size="14">投资计划部</tspan></text>
	</g>
	<g>
		<rect x="1000.262" y="294.027" fill="#F7F8F8" width="78.166" height="109.375"/>
		<text transform="matrix(1 0 0 1 1022.6387 332.0146)"><tspan x="0" y="0" font-family="'MicrosoftYaHei'" font-size="14">B907</tspan><tspan x="-11.293" y="21" font-family="'MicrosoftYaHei'" font-size="14">投资计划</tspan><tspan x="-4.293" y="42" font-family="'MicrosoftYaHei'" font-size="14">部部长</tspan></text>
	</g>
	<text transform="matrix(1 0 0 1 307.8228 367.6504)" font-family="'MicrosoftYaHei'" font-size="14">风机房</text>
	<text transform="matrix(1 0 0 1 367.4487 316.813)" font-family="'MicrosoftYaHei'" font-size="14">弱电</text>
	<text transform="matrix(1 0 0 1 1263.665 312.6196)" font-family="'MicrosoftYaHei'" font-size="14">弱电</text>
	<text transform="matrix(1 0 0 1 1315.376 312.6196)" font-family="'MicrosoftYaHei'" font-size="14">强电</text>
	<g>
		<rect x="126.452" y="119.602" fill="#F7F8F8" width="89.25" height="120.442"/>
		<text transform="matrix(1 0 0 1 143.0771 181.4868)"><tspan x="0" y="0" font-family="'MicrosoftYaHei'" font-size="14">总工程师</tspan><tspan x="11.293" y="21" font-family="'MicrosoftYaHei'" font-size="14">B922</tspan></text>
	</g>
	<g>
		<rect x="220.1" y="119.602" fill="#F7F8F8" width="82.612" height="120.442"/>
		<text transform="matrix(1 0 0 1 233.4058 181.4868)"><tspan x="0" y="0" font-family="'MicrosoftYaHei'" font-size="14">副总经理</tspan><tspan x="11.293" y="21" font-family="'MicrosoftYaHei'" font-size="14">B920</tspan></text>
	</g>
	<g>
		<rect x="307.54" y="119.602" fill="#F7F8F8" width="87.082" height="120.442"/>
		<text transform="matrix(1 0 0 1 330.0806 181.4868)"><tspan x="0" y="0" font-family="'MicrosoftYaHei'" font-size="14">监理会</tspan><tspan x="4.293" y="21" font-family="'MicrosoftYaHei'" font-size="14">B918</tspan></text>
	</g>
	<g>
		<rect x="399.123" y="119.602" fill="#F7F8F8" width="82.389" height="120.442"/>
		<text transform="matrix(1 0 0 1 405.3169 181.4868)"><tspan x="0" y="0" font-family="'MicrosoftYaHei'" font-size="14">上市办公室</tspan><tspan x="18.293" y="21" font-family="'MicrosoftYaHei'" font-size="14">B916</tspan></text>
	</g>
	<g>
		<rect x="486.339" y="119.602" fill="#F7F8F8" width="88.415" height="120.442"/>
		<text transform="matrix(1 0 0 1 502.5459 181.4868)"><tspan x="0" y="0" font-family="'MicrosoftYaHei'" font-size="14">企业顾问</tspan><tspan x="11.293" y="21" font-family="'MicrosoftYaHei'" font-size="14">B914</tspan></text>
	</g>
	<g>
		<rect x="1075.285" y="119.602" fill="#F7F8F8" width="121.85" height="120.442"/>
		<text transform="matrix(1 0 0 1 1115.21 181.4868)"><tspan x="0" y="0" font-family="'MicrosoftYaHei'" font-size="14">复印室</tspan><tspan x="4.293" y="21" font-family="'MicrosoftYaHei'" font-size="14">B908</tspan></text>
	</g>
	<g>
		<rect x="1202.549" y="119.602" fill="#F7F8F8" width="117.311" height="120.442"/>
		<text transform="matrix(1 0 0 1 1226.2031 181.4868)"><tspan x="0" y="0" font-family="'MicrosoftYaHei'" font-size="14">发展规划部</tspan><tspan x="18.293" y="21" font-family="'MicrosoftYaHei'" font-size="14">B908</tspan></text>
	</g>
	<g>
		<rect x="1323.91" y="119.602" fill="#F7F8F8" width="118.672" height="120.442"/>
		<text transform="matrix(1 0 0 1 1362.2461 181.4868)"><tspan x="0" y="0" font-family="'MicrosoftYaHei'" font-size="14">档案室</tspan><tspan x="4.293" y="21" font-family="'MicrosoftYaHei'" font-size="14">B908</tspan></text>
	</g>
	<g>
		<rect x="1447.41" y="119.602" fill="#F7F8F8" width="121.24" height="120.442"/>
		<text transform="matrix(1 0 0 1 1473.0303 181.4868)"><tspan x="0" y="0" font-family="'MicrosoftYaHei'" font-size="14">工程项目部</tspan><tspan x="18.293" y="21" font-family="'MicrosoftYaHei'" font-size="14">B908</tspan></text>
	</g>
	<g>
		<rect x="657.755" y="71.719" fill="#F7F8F8" width="336.504" height="167.825"/>
		<text transform="matrix(1 0 0 1 796.5107 159.8457)" font-family="'MicrosoftYaHei'" font-size="14">B9会议室</text>
		<text transform="matrix(1 0 0 1 679.7681 230.2529)" font-family="'MicrosoftYaHei'" font-size="14">B912</text>
		<text transform="matrix(1 0 0 1 937.6279 230.2529)" font-family="'MicrosoftYaHei'" font-size="14">B910</text>
	</g>
	<g>
		<rect x="35.728" y="119.602" fill="#F7F8F8" width="86.396" height="120.442"/>
		<text transform="matrix(1.0004 0 0 1 50.9448 163.0557)"><tspan x="0" y="0" font-family="'MicrosoftYaHei'" font-size="13.9843">工程建设</tspan><tspan x="6.992" y="20.977" font-family="'MicrosoftYaHei'" font-size="13.9843">管理部</tspan><tspan x="11.28" y="41.953" font-family="'MicrosoftYaHei'" font-size="13.9843">B924</tspan></text>
	</g>
</g>
<g id="lq">
	<path fill="#A0A0A0" d="M1489.102,401.664h-4.828V288.836h4.828V401.664z M1485.273,400.664h2.828V289.836h-2.828V400.664z"/>
	<g>
		<rect x="215.772" y="126.706" fill="#A0A0A0" width="1" height="103.547"/>
		<rect x="219.6" y="126.706" fill="#A0A0A0" width="1" height="103.547"/>
	</g>
	<g>
		<rect x="122.124" y="119.602" fill="#A0A0A0" width="1" height="123.771"/>
		<rect x="125.952" y="119.602" fill="#A0A0A0" width="1" height="123.771"/>
	</g>
	<rect x="132.471" y="289.336" fill="#A0A0A0" width="1" height="111.668"/>
	<rect x="136.299" y="289.336" fill="#A0A0A0" width="1" height="111.668"/>
	<rect x="275.744" y="289.336" fill="#A0A0A0" width="1" height="111.668"/>
	<rect x="279.571" y="292.838" fill="#A0A0A0" width="1" height="108.166"/>
	<rect x="215.772" y="292.813" fill="#A0A0A0" width="1" height="39.601"/>
	<rect x="219.6" y="289.485" fill="#A0A0A0" width="1" height="42.929"/>
	<g>
		<rect x="353.707" y="292.826" fill="#A0A0A0" width="1" height="39.588"/>
		<rect x="357.534" y="292.826" fill="#A0A0A0" width="1" height="39.588"/>
	</g>
	<rect x="97.886" y="239.544" fill="#A0A0A0" width="1" height="4.828"/>
	<rect x="679.768" y="239.544" fill="#A0A0A0" width="1" height="4.828"/>
	<rect x="600.765" y="288.976" fill="#A0A0A0" width="1" height="4.828"/>
	<rect x="548.727" y="288.976" fill="#A0A0A0" width="1" height="4.828"/>
	<rect x="773.316" y="288.976" fill="#A0A0A0" width="1" height="4.828"/>
	<rect x="971.234" y="288.976" fill="#A0A0A0" width="1" height="4.828"/>
	<rect x="970.043" y="239.544" fill="#A0A0A0" width="1" height="4.828"/>
	<rect x="1168.584" y="239.544" fill="#A0A0A0" width="1" height="4.828"/>
	<rect x="1054.324" y="288.976" fill="#A0A0A0" width="1" height="4.828"/>
	<rect x="1106.387" y="288.976" fill="#A0A0A0" width="1" height="4.828"/>
	<rect x="1589.973" y="288.985" fill="#A0A0A0" width="1" height="4.828"/>
	<rect x="1078.428" y="289.336" fill="#A0A0A0" width="4.828" height="1"/>
	<rect x="572.823" y="289.336" fill="#A0A0A0" width="4.828" height="1"/>
	<g>
		<rect x="403.823" y="293.707" fill="#A0A0A0" width="1" height="107.297"/>
		<rect x="407.651" y="293.707" fill="#A0A0A0" width="1" height="107.297"/>
	</g>
	<g>
		<rect x="572.823" y="289.336" fill="#A0A0A0" width="1" height="111.668"/>
		<rect x="576.651" y="289.336" fill="#A0A0A0" width="1" height="111.668"/>
	</g>
	<rect x="745.324" y="292.813" fill="#A0A0A0" width="1" height="108.19"/>
	<rect x="749.151" y="289.336" fill="#A0A0A0" width="1" height="111.668"/>
	<rect x="843.91" y="292.813" fill="#A0A0A0" width="1" height="140.91"/>
	<rect x="847.738" y="289.336" fill="#A0A0A0" width="1" height="144.388"/>
	<rect x="843.91" y="458.859" fill="#A0A0A0" width="1" height="43.977"/>
	<rect x="847.738" y="458.859" fill="#A0A0A0" width="1" height="45.063"/>
	<rect x="995.436" y="289.336" fill="#A0A0A0" width="1" height="114.872"/>
	<rect x="999.262" y="292.913" fill="#A0A0A0" width="1" height="111.295"/>
	<rect x="1078.428" y="289.336" fill="#A0A0A0" width="1" height="111.668"/>
	<rect x="1082.256" y="289.336" fill="#A0A0A0" width="1" height="111.668"/>
	<rect x="1238.41" y="292.813" fill="#A0A0A0" width="1" height="90.399"/>
	<rect x="1242.236" y="292.813" fill="#A0A0A0" width="1" height="90.399"/>
	<rect x="1350.102" y="293.313" fill="#A0A0A0" width="1" height="27.489"/>
	<rect x="1412.361" y="293.313" fill="#A0A0A0" width="1" height="26.217"/>
	<rect x="1416.189" y="293.313" fill="#A0A0A0" width="1" height="26.217"/>
	<rect x="1397.449" y="289.685" fill="#A0A0A0" width="1" height="34.424"/>
	<rect x="1401.275" y="292.851" fill="#A0A0A0" width="1" height="31.258"/>
	<rect x="1249.445" y="292.814" fill="#A0A0A0" width="1" height="31.294"/>
	<g>
		<rect x="394.795" y="126.706" fill="#A0A0A0" width="1" height="103.547"/>
		<rect x="398.623" y="126.706" fill="#A0A0A0" width="1" height="103.547"/>
	</g>
	<rect x="653.268" y="126.706" fill="#A0A0A0" width="1" height="113.912"/>
	<rect x="657.095" y="126.706" fill="#A0A0A0" width="1" height="117.666"/>
	<rect x="994.26" y="126.706" fill="#A0A0A0" width="1" height="117.166"/>
	<rect x="998.088" y="126.706" fill="#A0A0A0" width="1" height="113.726"/>
	<g>
		<rect x="574.753" y="163.383" fill="#A0A0A0" width="1" height="44.441"/>
		<rect x="578.581" y="163.383" fill="#A0A0A0" width="1" height="44.441"/>
	</g>
	<g>
		<rect x="1070.393" y="163.383" fill="#A0A0A0" width="1" height="44.149"/>
		<rect x="1074.221" y="163.383" fill="#A0A0A0" width="1" height="44.149"/>
	</g>
	<g>
		<rect x="1197.135" y="126.706" fill="#A0A0A0" width="1" height="103.547"/>
		<rect x="1200.961" y="126.706" fill="#A0A0A0" width="1" height="103.547"/>
	</g>
	<g>
		<rect x="1319.859" y="126.706" fill="#A0A0A0" width="1" height="103.547"/>
		<rect x="1323.686" y="126.706" fill="#A0A0A0" width="1" height="103.547"/>
	</g>
	<g>
		<rect x="1442.582" y="126.706" fill="#A0A0A0" width="1" height="103.547"/>
		<rect x="1446.41" y="126.706" fill="#A0A0A0" width="1" height="103.547"/>
	</g>
	<rect x="43.763" y="243.372" fill="#A0A0A0" width="55.123" height="1"/>
	<rect x="43.763" y="239.544" fill="#A0A0A0" width="55.123" height="1"/>
	<rect x="150.205" y="239.544" fill="#A0A0A0" width="1" height="4.828"/>
	<rect x="150.205" y="243.372" fill="#A0A0A0" width="59.937" height="1"/>
	<rect x="150.205" y="239.544" fill="#A0A0A0" width="59.937" height="1"/>
	<rect x="160.22" y="292.813" fill="#A0A0A0" width="56.552" height="1"/>
	<rect x="160.22" y="288.985" fill="#A0A0A0" width="60.38" height="1"/>
	<rect x="279.571" y="292.813" fill="#A0A0A0" width="15.225" height="1"/>
	<rect x="275.701" y="288.985" fill="#A0A0A0" width="19.095" height="1"/>
	<rect x="328.823" y="292.813" fill="#A0A0A0" width="25.884" height="1"/>
	<rect x="358.534" y="292.813" fill="#A0A0A0" width="3.997" height="1"/>
	<rect x="328.823" y="288.985" fill="#A0A0A0" width="33.708" height="1"/>
	<rect x="407.651" y="292.813" fill="#A0A0A0" width="142.076" height="1"/>
	<rect x="395.668" y="292.813" fill="#A0A0A0" width="9.155" height="1"/>
	<rect x="395.668" y="288.985" fill="#A0A0A0" width="154.059" height="1"/>
	<rect x="600.765" y="292.813" fill="#A0A0A0" width="145.559" height="1"/>
	<rect x="600.765" y="288.985" fill="#A0A0A0" width="149.387" height="1"/>
	<rect x="773.316" y="292.813" fill="#A0A0A0" width="71.594" height="1"/>
	<rect x="773.316" y="288.985" fill="#A0A0A0" width="75.455" height="1"/>
	<rect x="909.219" y="289.336" fill="#A0A0A0" width="1" height="111.668"/>
	<rect x="913.047" y="293.813" fill="#A0A0A0" width="1" height="107.19"/>
	<rect x="913.047" y="292.813" fill="#A0A0A0" width="59.188" height="1"/>
	<rect x="909.219" y="288.985" fill="#A0A0A0" width="63.016" height="1"/>
	<rect x="999.762" y="292.813" fill="#A0A0A0" width="55.563" height="1"/>
	<rect x="995.436" y="288.985" fill="#A0A0A0" width="59.889" height="1"/>
	<rect x="1106.387" y="288.985" fill="#A0A0A0" width="158.66" height="1"/>
	<rect x="1305.338" y="292.813" fill="#A0A0A0" width="10.115" height="1"/>
	<rect x="42.09" y="292.813" fill="#A0A0A0" width="67.379" height="1"/>
	<rect x="42.09" y="288.985" fill="#A0A0A0" width="67.379" height="1"/>
	<line fill="none" stroke="#231815" stroke-miterlimit="10" x1="43.763" y1="119.602" x2="210.141" y2="119.602"/>
	<line fill="none" stroke="#231815" stroke-miterlimit="10" x1="224.35" y1="119.602" x2="390.729" y2="119.602"/>
	<line fill="none" stroke="#231815" stroke-miterlimit="10" x1="408.151" y1="404.021" x2="846.072" y2="404.021"/>
	<line fill="none" stroke="#231815" stroke-miterlimit="10" x1="911.006" y1="404.021" x2="1252.506" y2="404.021"/>
	<line fill="none" stroke="#231815" stroke-miterlimit="10" x1="403.15" y1="119.602" x2="569.528" y2="119.602"/>
	<line fill="none" stroke="#231815" stroke-miterlimit="10" x1="1083.93" y1="119.601" x2="1568.65" y2="119.601"/>
	<rect x="579.85" y="243.372" fill="#A0A0A0" width="77.906" height="1"/>
	<rect x="579.85" y="239.544" fill="#A0A0A0" width="73.918" height="1"/>
	<rect x="679.768" y="243.372" fill="#A0A0A0" width="291.275" height="1"/>
	<rect x="679.768" y="239.544" fill="#A0A0A0" width="291.275" height="1"/>
	<rect x="1075.99" y="243.372" fill="#A0A0A0" width="93.594" height="1"/>
	<rect x="1075.99" y="239.544" fill="#A0A0A0" width="93.594" height="1"/>
	<rect x="994.26" y="243.372" fill="#A0A0A0" width="81.025" height="1"/>
	<rect x="998.088" y="239.544" fill="#A0A0A0" width="77.197" height="1"/>
	<g>
		<rect x="1229.406" y="243.372" fill="#A0A0A0" width="92.865" height="1"/>
		<rect x="1229.406" y="239.544" fill="#A0A0A0" width="92.865" height="1"/>
	</g>
	<rect x="1511.658" y="292.813" fill="#A0A0A0" width="79.314" height="1"/>
	<rect x="1511.658" y="288.985" fill="#A0A0A0" width="79.314" height="1"/>
	<rect x="1401.275" y="292.813" fill="#A0A0A0" width="12.086" height="1"/>
	<rect x="1416.189" y="292.813" fill="#A0A0A0" width="45.287" height="1"/>
	<rect x="1397.51" y="288.985" fill="#A0A0A0" width="63.967" height="1"/>
	<g>
		<line fill="none" stroke="#231815" stroke-miterlimit="10" x1="749.651" y1="632.709" x2="749.651" y2="407.579"/>
		<line fill="none" stroke="#231815" stroke-miterlimit="10" x1="742.8" y1="632.709" x2="742.8" y2="407.579"/>
	</g>
	<line fill="none" stroke="#231815" stroke-miterlimit="10" x1="921.973" y1="632.709" x2="921.973" y2="407.108"/>
	<g>
		<line fill="none" stroke="#231815" stroke-miterlimit="10" x1="844.373" y1="530.355" x2="749.651" y2="530.355"/>
		<line fill="none" stroke="#231815" stroke-miterlimit="10" x1="844.373" y1="537.206" x2="749.651" y2="537.206"/>
	</g>
	<path fill="#A0A0A0" d="M848.236,630.938h-4.828v-105.28h4.828V630.938z M844.408,629.938h2.828v-103.28h-2.828V629.938z"/>
	<rect x="1289.943" y="288.985" fill="#A0A0A0" width="24.129" height="1"/>
	<rect x="1289.943" y="292.813" fill="#A0A0A0" width="12.41" height="1"/>
	<rect x="1253.773" y="292.813" fill="#A0A0A0" width="12.41" height="1"/>
	<rect x="1242.736" y="292.813" fill="#A0A0A0" width="7.754" height="1"/>
	<rect x="1305.338" y="292.813" fill="#A0A0A0" width="8.979" height="1"/>
	<rect x="1338.963" y="292.813" fill="#A0A0A0" width="12.139" height="1"/>
	<rect x="1333.094" y="323.713" fill="#A0A0A0" width="21.574" height="1"/>
	<rect x="1301.406" y="292.814" fill="#A0A0A0" width="1" height="26.446"/>
	<rect x="1305.234" y="292.814" fill="#A0A0A0" width="1" height="26.446"/>
	<rect x="1350.102" y="292.814" fill="#A0A0A0" width="1" height="27.988"/>
	<rect x="1353.902" y="288.985" fill="#A0A0A0" width="1" height="35.764"/>
	<rect x="1338.963" y="288.985" fill="#A0A0A0" width="15.939" height="1"/>
	<rect x="1329.475" y="319.885" fill="#A0A0A0" width="21.574" height="1"/>
	<rect x="1106.387" y="292.813" fill="#A0A0A0" width="132.027" height="1"/>
	<rect x="1253.273" y="292.814" fill="#A0A0A0" width="1" height="26.446"/>
	<rect x="108.469" y="288.985" fill="#A0A0A0" width="1" height="4.828"/>
	<rect x="160.22" y="288.985" fill="#A0A0A0" width="1" height="4.828"/>
	<rect x="132.471" y="289.336" fill="#A0A0A0" width="4.828" height="1"/>
	<rect x="1414" y="239.544" fill="#A0A0A0" width="1" height="4.828"/>
	<rect x="1321.406" y="243.372" fill="#A0A0A0" width="93.594" height="1"/>
	<rect x="1321.406" y="239.544" fill="#A0A0A0" width="93.594" height="1"/>
	<g>
		<rect x="1474.822" y="243.372" fill="#A0A0A0" width="92.865" height="1"/>
		<rect x="1474.822" y="239.544" fill="#A0A0A0" width="92.865" height="1"/>
	</g>
	<g>
		<rect x="302.711" y="119.602" fill="#A0A0A0" width="1" height="123.771"/>
		<rect x="306.539" y="119.602" fill="#A0A0A0" width="1" height="123.771"/>
	</g>
	<rect x="278.473" y="239.544" fill="#A0A0A0" width="1" height="4.828"/>
	<rect x="224.35" y="243.372" fill="#A0A0A0" width="55.123" height="1"/>
	<rect x="224.35" y="239.544" fill="#A0A0A0" width="55.123" height="1"/>
	<rect x="330.792" y="239.544" fill="#A0A0A0" width="1" height="4.828"/>
	<rect x="330.792" y="243.372" fill="#A0A0A0" width="59.937" height="1"/>
	<rect x="330.792" y="239.544" fill="#A0A0A0" width="59.937" height="1"/>
	<g>
		<rect x="481.511" y="119.602" fill="#A0A0A0" width="1" height="123.771"/>
		<rect x="485.339" y="119.602" fill="#A0A0A0" width="1" height="123.771"/>
	</g>
	<rect x="457.273" y="239.544" fill="#A0A0A0" width="1" height="4.828"/>
	<rect x="403.15" y="243.372" fill="#A0A0A0" width="55.123" height="1"/>
	<rect x="403.15" y="239.544" fill="#A0A0A0" width="55.123" height="1"/>
	<rect x="509.592" y="239.544" fill="#A0A0A0" width="1" height="4.828"/>
	<rect x="509.592" y="243.372" fill="#A0A0A0" width="59.937" height="1"/>
	<rect x="509.592" y="239.544" fill="#A0A0A0" width="59.937" height="1"/>
	<rect x="802.074" y="458.859" fill="#A0A0A0" width="46.164" height="2.179"/>
	<rect x="802.074" y="458.859" fill="#A0A0A0" width="2.179" height="45.544"/>
	<rect x="802.074" y="404.021" fill="#A0A0A0" width="2.179" height="22.364"/>
</g>
<g id="czq2">
	<rect x="44.961" y="400.935" fill="#357540" width="172.249" height="6.174"/>
	<rect x="1409.984" y="400.935" fill="#357540" width="181.041" height="6.174"/>
	<rect x="652.594" y="65.545" fill="#357540" width="347.167" height="6.174"/>
	<rect y="400.935" fill="#357540" width="29.554" height="6.174"/>
	<rect x="580.254" y="142.212" fill="#357540" width="78.514" height="6.174"/>
	<rect x="995.934" y="142.212" fill="#357540" width="73.785" height="6.174"/>
	<rect y="287.854" fill="#357540" width="43.763" height="6.174"/>
	<rect y="290.94" fill="#357540" width="6.174" height="116.166"/>
	<rect x="1584.852" y="290.94" fill="#357540" width="6.174" height="116.166"/>
	<rect x="652.594" y="65.545" fill="#357540" width="6.174" height="82.841"/>
	<rect x="993.588" y="65.545" fill="#357540" width="6.174" height="82.841"/>
</g>
<g id="zd">
	<path fill="#357540" d="M353.748,439.62c0,5.522-4.477,10-10,10h-46.569c-5.522,0-10-4.478-10-10v-10.576c0-5.522,4.478-10,10-10
		h46.569c5.523,0,10,4.478,10,10V439.62z"/>
	<text transform="matrix(1 0 0 1 52.9868 273.9746)" font-family="'MicrosoftYaHei'" font-size="22">走道</text>
	<text transform="matrix(1 0 0 1 296.4634 437.9443)" font-family="'MicrosoftYaHei'" font-size="12">安全出口</text>
	<text transform="matrix(1 0 0 1 812.3008 420.1064)" font-family="'MicrosoftYaHei'" font-size="12">水井</text>
	<text transform="matrix(1 0 0 1 812.3008 477.4102)" font-family="'MicrosoftYaHei'" font-size="12">开水</text>
	<text transform="matrix(1 0 0 1 319.2739 273.9746)" font-family="'MicrosoftYaHei'" font-size="22">走道</text>
	<text transform="matrix(1 0 0 1 680.7681 273.9746)" font-family="'MicrosoftYaHei'" font-size="22">走道</text>
	<text transform="matrix(1 0 0 1 857.1934 407.5791)" font-family="'MicrosoftYaHei'" font-size="22">走道</text>
	<text transform="matrix(1 0 0 1 863.1934 604.0693)" font-family="'MicrosoftYaHei'" font-size="22">走道</text>
	<text transform="matrix(1 0 0 1 1249.4453 273.9746)" font-family="'MicrosoftYaHei'" font-size="22">走道</text>
	<text transform="matrix(1 0 0 1 1016.4453 273.9746)" font-family="'MicrosoftYaHei'" font-size="22">走道</text>
	<text transform="matrix(1 0 0 1 1500.5039 273.9746)" font-family="'MicrosoftYaHei'" font-size="22">走道</text>
	<rect x="124.017" y="265.913" fill="#357540" width="127.895" height="2.879"/>
	<rect x="249.033" y="432.893" fill="#357540" width="16.487" height="2.879"/>
	<rect x="249.033" y="265.974" fill="#357540" width="2.879" height="167.491"/>
	<polygon fill="#357540" points="265.52,427.866 282.284,434.333 265.52,440.799 	"/>
	<path fill="#357540" d="M1270.191,439.62c0,5.522,4.477,10,10,10h46.568c5.523,0,10-4.478,10-10v-10.576c0-5.522-4.477-10-10-10
		h-46.568c-5.523,0-10,4.478-10,10V439.62z"/>
	<text transform="matrix(1 0 0 1 1279.4746 437.9443)" font-family="'MicrosoftYaHei'" font-size="12">安全出口</text>
	<rect x="1369.209" y="265.913" fill="#357540" width="69.625" height="2.879"/>
	<rect x="1358.221" y="432.893" fill="#357540" width="13.867" height="2.879"/>
	<rect x="1369.209" y="265.974" fill="#357540" width="2.879" height="167.491"/>
	<polygon fill="#357540" points="1358.221,427.866 1341.457,434.333 1358.221,440.799 	"/>
	<rect x="784.528" y="265.911" fill="#357540" width="81.574" height="2.879"/>
	<polygon fill="#357540" points="784.528,260.886 767.763,267.353 784.528,273.818 	"/>
	<rect x="863.219" y="265.913" fill="#357540" width="2.879" height="81.574"/>
	<polygon fill="#357540" points="858.193,347.487 864.66,364.251 871.125,347.487 	"/>
	<rect x="890.26" y="265.911" fill="#357540" width="81.572" height="2.879"/>
	<polygon fill="#357540" points="971.832,260.886 988.598,267.353 971.832,273.818 	"/>
	<rect x="1101.346" y="265.911" fill="#357540" width="81.572" height="2.879"/>
	<polygon fill="#357540" points="1182.918,260.886 1199.684,267.353 1182.918,273.818 	"/>
	<rect x="890.262" y="265.913" fill="#357540" width="2.879" height="81.574"/>
	<polygon fill="#357540" points="898.166,347.487 891.699,364.251 885.234,347.487 	"/>
	<rect x="441.694" y="265.913" fill="#357540" width="210.897" height="2.879"/>
	<polygon fill="#357540" points="441.694,260.886 424.929,267.353 441.694,273.818 	"/>
	<g>
		<rect x="883.754" y="449.62" fill="#357540" width="2.879" height="81.574"/>
		<polygon fill="#357540" points="891.658,531.194 885.191,547.958 878.727,531.194 		"/>
	</g>
</g>
<g id="m">
	<g>
		<g>
			<rect x="1434.414" y="225.021" fill="#231815" width="2.445" height="19.441"/>
			<path fill="none" stroke="#231815" stroke-width="0.95" stroke-miterlimit="10" d="M1415.105,243.042
				c0.055,2.253-1.08-15.459,21.336-17.38"/>
		</g>
		<g>
			<rect x="1453.068" y="225.021" fill="#231815" width="2.445" height="19.441"/>
			<path fill="none" stroke="#231815" stroke-width="0.95" stroke-miterlimit="10" d="M1474.822,243.042
				c-0.055,2.253,1.08-15.459-21.336-17.38"/>
		</g>
	</g>
	<g>
		<rect x="118.679" y="225.021" fill="#231815" width="2.445" height="19.441"/>
		<path fill="none" stroke="#231815" stroke-width="0.95" stroke-miterlimit="10" d="M99.371,243.042
			c0.054,2.253-1.081-15.459,21.335-17.38"/>
	</g>
	<g>
		<rect x="127.933" y="225.021" fill="#231815" width="2.445" height="19.441"/>
		<path fill="none" stroke="#231815" stroke-width="0.95" stroke-miterlimit="10" d="M149.687,243.042
			c-0.054,2.253,1.081-15.459-21.335-17.38"/>
	</g>
	<g>
		<rect x="299.266" y="225.021" fill="#231815" width="2.445" height="19.441"/>
		<path fill="none" stroke="#231815" stroke-width="0.95" stroke-miterlimit="10" d="M279.958,243.042
			c0.054,2.253-1.081-15.459,21.335-17.38"/>
	</g>
	<g>
		<rect x="308.521" y="225.021" fill="#231815" width="2.445" height="19.441"/>
		<path fill="none" stroke="#231815" stroke-width="0.95" stroke-miterlimit="10" d="M330.274,243.042
			c-0.054,2.253,1.081-15.459-21.335-17.38"/>
	</g>
	<g>
		<g>
			<rect x="478.066" y="225.021" fill="#231815" width="2.445" height="19.441"/>
			<path fill="none" stroke="#231815" stroke-width="0.95" stroke-miterlimit="10" d="M458.758,243.042
				c0.054,2.253-1.081-15.459,21.335-17.38"/>
		</g>
		<g>
			<rect x="487.32" y="225.021" fill="#231815" width="2.445" height="19.441"/>
			<path fill="none" stroke="#231815" stroke-width="0.95" stroke-miterlimit="10" d="M509.074,243.042
				c-0.054,2.253,1.081-15.459-21.335-17.38"/>
		</g>
	</g>
	<g>
		<rect x="326.979" y="278.975" fill="#231815" width="1.844" height="14.793"/>
		<path fill="none" stroke="#231815" stroke-width="0.95" stroke-miterlimit="10" d="M312.42,292.688
			c0.041,1.714-0.814-11.764,16.086-13.225"/>
	</g>
	<g>
		<rect x="1188.998" y="225.021" fill="#231815" width="2.445" height="19.441"/>
		<path fill="none" stroke="#231815" stroke-width="0.95" stroke-miterlimit="10" d="M1169.689,243.042
			c0.055,2.253-1.08-15.459,21.336-17.38"/>
	</g>
	<g>
		<rect x="294.888" y="278.975" fill="#231815" width="1.844" height="14.793"/>
		<path fill="none" stroke="#231815" stroke-width="0.95" stroke-miterlimit="10" d="M311.291,292.688
			c-0.041,1.714,0.814-11.764-16.087-13.225"/>
	</g>
	<g>
		<rect x="394.622" y="278.975" fill="#231815" width="1.844" height="14.793"/>
		<path fill="none" stroke="#231815" stroke-width="0.95" stroke-miterlimit="10" d="M380.063,292.688
			c0.041,1.714-0.814-11.764,16.086-13.225"/>
	</g>
	<g>
		<rect x="362.531" y="278.975" fill="#231815" width="1.844" height="14.793"/>
		<path fill="none" stroke="#231815" stroke-width="0.95" stroke-miterlimit="10" d="M378.933,292.688
			c-0.041,1.714,0.814-11.764-16.087-13.225"/>
	</g>
	<g>
		<g>
			<rect x="1288.563" y="284.755" fill="#231815" width="1.381" height="11.074"/>
			<path fill="none" stroke="#231815" stroke-width="0.95" stroke-miterlimit="10" d="M1277.664,295.021
				c0.031,1.283-0.609-8.807,12.043-9.9"/>
		</g>
		<g>
			<rect x="1265.053" y="284.755" fill="#231815" width="1.379" height="11.074"/>
			<path fill="none" stroke="#231815" stroke-width="0.95" stroke-miterlimit="10" d="M1277.33,295.021
				c-0.029,1.283,0.611-8.807-12.043-9.9"/>
		</g>
	</g>
	<g>
		<g>
			<rect x="1337.584" y="284.755" fill="#231815" width="1.379" height="11.074"/>
			<path fill="none" stroke="#231815" stroke-width="0.95" stroke-miterlimit="10" d="M1326.686,295.021
				c0.029,1.283-0.611-8.807,12.041-9.9"/>
		</g>
		<g>
			<rect x="1314.072" y="284.755" fill="#231815" width="1.381" height="11.074"/>
			<path fill="none" stroke="#231815" stroke-width="0.95" stroke-miterlimit="10" d="M1326.352,295.021
				c-0.031,1.283,0.609-8.807-12.043-9.9"/>
		</g>
	</g>
	<g>
		<rect x="1207.652" y="225.021" fill="#231815" width="2.445" height="19.441"/>
		<path fill="none" stroke="#231815" stroke-width="0.95" stroke-miterlimit="10" d="M1229.406,243.042
			c-0.055,2.253,1.08-15.459-21.336-17.38"/>
	</g>
	<g>
		<rect x="658.085" y="243.185" fill="#231815" width="2.445" height="19.441"/>
		<path fill="none" stroke="#231815" stroke-width="0.95" stroke-miterlimit="10" d="M679.838,244.604
			c-0.054-2.253,1.081,15.459-21.335,17.38"/>
	</g>
	<g>
		<rect x="990.297" y="243.185" fill="#231815" width="2.445" height="19.441"/>
		<path fill="none" stroke="#231815" stroke-width="0.95" stroke-miterlimit="10" d="M970.988,244.604
			c0.055-2.253-1.08,15.459,21.336,17.38"/>
	</g>
	<g>
		<rect x="1480.836" y="289.336" fill="#231815" width="2.445" height="19.441"/>
		<path fill="none" stroke="#231815" stroke-width="0.95" stroke-miterlimit="10" d="M1461.527,290.756
			c0.055-2.253-1.08,15.459,21.336,17.38"/>
	</g>
	<g>
		<rect x="1490.154" y="289.336" fill="#231815" width="2.445" height="19.441"/>
		<path fill="none" stroke="#231815" stroke-width="0.95" stroke-miterlimit="10" d="M1511.908,290.756
			c-0.055-2.253,1.08,15.459-21.336,17.38"/>
	</g>
	<g>
		<rect x="1074.984" y="289.336" fill="#231815" width="2.445" height="19.441"/>
		<path fill="none" stroke="#231815" stroke-width="0.95" stroke-miterlimit="10" d="M1055.676,290.756
			c0.055-2.253-1.08,15.459,21.336,17.38"/>
	</g>
	<g>
		<rect x="992.031" y="289.336" fill="#231815" width="2.445" height="19.441"/>
		<path fill="none" stroke="#231815" stroke-width="0.95" stroke-miterlimit="10" d="M972.723,290.756
			c0.055-2.253-1.08,15.459,21.336,17.38"/>
	</g>
	<g>
		<rect x="1084.26" y="289.336" fill="#231815" width="2.445" height="19.441"/>
		<path fill="none" stroke="#231815" stroke-width="0.95" stroke-miterlimit="10" d="M1106.014,290.756
			c-0.055-2.253,1.08,15.459-21.336,17.38"/>
	</g>
	<g>
		<rect x="569.413" y="289.336" fill="#231815" width="2.445" height="19.441"/>
		<path fill="none" stroke="#231815" stroke-width="0.95" stroke-miterlimit="10" d="M550.104,290.756
			c0.055-2.253-1.08,15.459,21.336,17.38"/>
	</g>
	<g>
		<rect x="578.641" y="289.336" fill="#231815" width="2.445" height="19.441"/>
		<path fill="none" stroke="#231815" stroke-width="0.95" stroke-miterlimit="10" d="M600.395,290.756
			c-0.055-2.253,1.08,15.459-21.336,17.38"/>
	</g>
	<g>
		<rect x="128.943" y="288.372" fill="#231815" width="2.445" height="19.441"/>
		<path fill="none" stroke="#231815" stroke-width="0.95" stroke-miterlimit="10" d="M109.635,289.792
			c0.055-2.253-1.08,15.459,21.336,17.38"/>
	</g>
	<g>
		<rect x="138.393" y="288.372" fill="#231815" width="2.445" height="19.441"/>
		<path fill="none" stroke="#231815" stroke-width="0.95" stroke-miterlimit="10" d="M160.146,289.792
			c-0.055-2.253,1.08,15.459-21.336,17.38"/>
	</g>
	<g>
		<rect x="751.143" y="288.976" fill="#231815" width="2.445" height="19.441"/>
		<path fill="none" stroke="#231815" stroke-width="0.95" stroke-miterlimit="10" d="M772.897,290.396
			c-0.055-2.253,1.08,15.459-21.336,17.38"/>
	</g>
	<g>
		<rect x="828.797" y="522.712" fill="#231815" width="19.441" height="2.445"/>
		<path fill="none" stroke="#231815" stroke-width="0.95" stroke-miterlimit="10" d="M846.818,503.403
			c2.252,0.055-15.459-1.08-17.381,21.336"/>
	</g>
	<g>
		<rect x="828.797" y="452.773" fill="#231815" width="19.441" height="2.445"/>
		<path fill="none" stroke="#231815" stroke-width="0.95" stroke-miterlimit="10" d="M846.818,433.465
			c2.252,0.055-15.459-1.08-17.381,21.336"/>
	</g>
	<g>
		<rect x="577.901" y="226.808" fill="#231815" width="19.441" height="2.445"/>
		<path fill="none" stroke="#231815" stroke-width="0.95" stroke-miterlimit="10" d="M579.321,207.499
			c-2.253,0.055,15.459-1.08,17.38,21.335"/>
	</g>
	<g>
		<rect x="1052.584" y="226.808" fill="#231815" width="19.441" height="2.445"/>
		<path fill="none" stroke="#231815" stroke-width="0.95" stroke-miterlimit="10" d="M1070.605,207.499
			c2.254,0.055-15.459-1.08-17.379,21.335"/>
	</g>
	<g>
		<g>
			<rect x="1378.178" y="319.212" fill="#231815" width="1.381" height="11.074"/>
			<path fill="none" stroke="#231815" stroke-width="0.95" stroke-miterlimit="10" d="M1367.279,320.021
				c0.031-1.283-0.609,8.807,12.043,9.9"/>
		</g>
		<g>
			<rect x="1354.668" y="319.212" fill="#231815" width="1.379" height="11.074"/>
			<path fill="none" stroke="#231815" stroke-width="0.95" stroke-miterlimit="10" d="M1366.945,320.021
				c-0.029-1.283,0.611,8.807-12.043,9.9"/>
		</g>
	</g>
	<g>
		<g>
			<rect x="1378.178" y="400.935" fill="#231815" width="1.381" height="11.074"/>
			<path fill="none" stroke="#231815" stroke-width="0.95" stroke-miterlimit="10" d="M1367.279,401.743
				c0.031-1.283-0.609,8.807,12.043,9.9"/>
		</g>
		<g>
			<rect x="1354.668" y="400.935" fill="#231815" width="1.379" height="11.074"/>
			<path fill="none" stroke="#231815" stroke-width="0.95" stroke-miterlimit="10" d="M1366.945,401.743
				c-0.029-1.283,0.611,8.807-12.043,9.9"/>
		</g>
	</g>
</g>
<g id="czq1">
	<rect x="29.554" y="125.043" fill="#46484B" width="6.174" height="106.968"/>
	<rect x="215.702" y="331.685" fill="#46484B" width="6.174" height="81.73"/>
	<rect x="215.702" y="331.685" fill="#46484B" width="22.59" height="6.174"/>
	<rect x="218.789" y="400.935" fill="#46484B" width="22.59" height="6.174"/>
	<rect x="266.788" y="400.935" fill="#46484B" width="62.035" height="6.174"/>
	<rect x="367.038" y="400.935" fill="#46484B" width="42.286" height="6.174"/>
	<rect x="1296.283" y="400.935" fill="#46484B" width="58.334" height="6.174"/>
	<rect x="1379.559" y="400.935" fill="#46484B" width="37.6" height="6.174"/>
	<rect x="1395.422" y="454.935" fill="#46484B" width="21.736" height="6.174"/>
	<rect x="1241.736" y="454.935" fill="#46484B" width="21.736" height="6.174"/>
	<rect x="353.574" y="331.07" fill="#46484B" width="55.75" height="6.174"/>
	<rect x="1238.65" y="319.212" fill="#46484B" width="94.508" height="6.174"/>
	<rect x="218.789" y="454.935" fill="#46484B" width="22.59" height="6.174"/>
	<rect x="386.733" y="454.935" fill="#46484B" width="22.59" height="6.174"/>
	<rect x="215.702" y="438.519" fill="#46484B" width="6.174" height="22.59"/>
	<rect x="403.15" y="407.107" fill="#46484B" width="6.174" height="54"/>
	<rect x="403.15" y="331.07" fill="#46484B" width="6.174" height="22.59"/>
	<rect x="403.15" y="378.345" fill="#46484B" width="6.174" height="22.59"/>
	<rect x="574.081" y="123.337" fill="#46484B" width="6.174" height="41.549"/>
	<rect x="1069.719" y="124.233" fill="#46484B" width="6.174" height="40.652"/>
	<rect x="1238.65" y="383.213" fill="#46484B" width="6.174" height="77.896"/>
	<rect x="1410.984" y="442.104" fill="#46484B" width="6.174" height="19.005"/>
	<rect x="1410.984" y="322.299" fill="#46484B" width="6.174" height="84.81"/>
	<rect x="1568.65" y="121.942" fill="#46484B" width="6.174" height="122.52"/>
	<rect x="1378.65" y="319.212" fill="#46484B" width="38.508" height="6.174"/>
	<rect x="1560.615" y="112.497" fill="#46484B" width="14.209" height="14.209"/>
	<rect x="1069.719" y="112.497" fill="#46484B" width="14.209" height="14.209"/>
	<rect x="1069.719" y="230.253" fill="#46484B" width="14.209" height="14.209"/>
	<rect x="909.219" y="230.253" fill="#46484B" width="14.209" height="14.209"/>
	<rect x="738.719" y="230.253" fill="#46484B" width="14.209" height="14.209"/>
	<rect x="738.719" y="112.497" fill="#46484B" width="14.209" height="14.209"/>
	<rect x="566.045" y="112.497" fill="#46484B" width="14.209" height="14.209"/>
	<rect x="390.104" y="112.497" fill="#46484B" width="14.209" height="14.209"/>
	<rect x="210.141" y="112.497" fill="#46484B" width="14.209" height="14.209"/>
	<rect x="29.554" y="112.497" fill="#46484B" width="14.209" height="14.209"/>
	<rect x="29.554" y="230.253" fill="#46484B" width="14.209" height="14.209"/>
	<rect x="29.554" y="392.899" fill="#46484B" width="14.209" height="14.209"/>
	<rect x="215.875" y="392.899" fill="#46484B" width="14.209" height="14.209"/>
	<rect x="395.115" y="392.899" fill="#46484B" width="14.209" height="14.209"/>
	<rect x="569.132" y="392.899" fill="#46484B" width="14.209" height="14.209"/>
	<rect x="738.719" y="392.899" fill="#46484B" width="14.209" height="14.209"/>
	<rect x="738.719" y="514.158" fill="#46484B" width="14.209" height="14.209"/>
	<rect x="738.719" y="533.781" fill="#46484B" width="14.209" height="14.209"/>
	<rect x="909.219" y="533.781" fill="#46484B" width="14.209" height="14.209"/>
	<rect x="909.219" y="514.158" fill="#46484B" width="14.209" height="14.209"/>
	<rect x="909.219" y="392.899" fill="#46484B" width="14.209" height="14.209"/>
	<rect x="1073.736" y="392.899" fill="#46484B" width="14.209" height="14.209"/>
	<rect x="1238.65" y="392.899" fill="#46484B" width="14.209" height="14.209"/>
	<rect x="1558.615" y="392.899" fill="#46484B" width="14.209" height="14.209"/>
	<rect x="1402.949" y="392.899" fill="#46484B" width="14.209" height="14.209"/>
	<rect x="210.141" y="230.253" fill="#46484B" width="14.209" height="14.209"/>
	<rect x="390.104" y="230.253" fill="#46484B" width="14.209" height="14.209"/>
	<rect x="566.045" y="230.253" fill="#46484B" width="14.209" height="14.209"/>
	<rect x="909.219" y="112.497" fill="#46484B" width="14.209" height="14.209"/>
	<g>
		<rect x="1192.443" y="112.497" fill="#46484B" width="14.209" height="14.209"/>
		<rect x="1192.443" y="230.253" fill="#46484B" width="14.209" height="14.209"/>
	</g>
	<g>
		<rect x="1315.168" y="112.497" fill="#46484B" width="14.209" height="14.209"/>
		<rect x="1315.168" y="230.253" fill="#46484B" width="14.209" height="14.209"/>
	</g>
	<g>
		<rect x="1437.891" y="112.497" fill="#46484B" width="14.209" height="14.209"/>
		<rect x="1437.891" y="230.253" fill="#46484B" width="14.209" height="14.209"/>
	</g>
	<rect x="1558.615" y="230.253" fill="#46484B" width="14.209" height="14.209"/>
</g>
<g id="direction">
	<text transform="matrix(1 0 0 1 1559.5488 13.7188)" fill="#BC0000" font-family="'MicrosoftYaHei'" font-size="16">北</text>
	<ellipse fill="none" stroke="#BC0000" stroke-miterlimit="10" cx="1567.549" cy="40.386" rx="23.539" ry="9.891"/>
	<polygon fill="none" stroke="#BC0000" stroke-linejoin="round" stroke-miterlimit="10" points="1553.775,59.045 1568.299,21.482
		1581.322,59.045 1567.549,40.386 	"/>
	<text transform="matrix(1 0 0 1 1128.6826 342.5156)" fill="#E50012" font-family="'MicrosoftYaHei'" font-size="16">★</text>
	<text transform="matrix(1 0 0 1 1229.8828 202.0356)" fill="#E50012" font-family="'MicrosoftYaHei'" font-size="16">★</text>
	<text transform="matrix(1 0 0 1 46.4595 205.0356)" fill="#E50012" font-family="'MicrosoftYaHei'" font-size="16">★</text>
	<text transform="matrix(1 0 0 1 629.1499 343.3652)" fill="#E50012" font-family="'MicrosoftYaHei'" font-size="16">★</text>
	<text transform="matrix(1 0 0 1 458.4727 343.3652)" fill="#E50012" font-family="'MicrosoftYaHei'" font-size="16">★</text>
</g>
</svg>
