<?xml version="1.0" encoding="utf-8"?>
<!-- Generator: Adobe Illustrator 16.0.0, SVG Export Plug-In . SVG Version: 6.00 Build 0)  -->
<!DOCTYPE svg PUBLIC "-//W3C//DTD SVG 1.1//EN" "http://www.w3.org/Graphics/SVG/1.1/DTD/svg11.dtd">
<svg version="1.1" id="图层_1" xmlns="http://www.w3.org/2000/svg" xmlns:xlink="http://www.w3.org/1999/xlink" x="0px" y="0px"
	 width="100px" height="100px" viewBox="0 0 100 100" enable-background="new 0 0 100 100" xml:space="preserve">
<g>
	<rect x="12.732" y="12.732" fill="none" stroke="#231815" stroke-miterlimit="10" width="74.536" height="74.535"/>
	<path fill="#231815" d="M12.737,22.548v4.867c1.344,0,2.434-1.09,2.434-2.434C15.171,23.637,14.082,22.548,12.737,22.548z"/>
	<path fill="#231815" d="M12.737,47.149v4.867c1.344,0,2.434-1.09,2.434-2.434S14.082,47.149,12.737,47.149z"/>
	<path fill="#231815" d="M12.737,71.928v4.867c1.344,0,2.434-1.09,2.434-2.434C15.171,73.017,14.082,71.928,12.737,71.928z"/>
	<path fill="#231815" d="M12.737,82.4v4.867c1.344,0,2.434-1.09,2.434-2.434C15.171,83.489,14.082,82.4,12.737,82.4z"/>
	<path fill="#231815" d="M12.737,22.548v4.867c1.344,0,2.434-1.09,2.434-2.434C15.171,23.637,14.082,22.548,12.737,22.548z"/>
	<path fill="#231815" d="M12.737,47.149v4.867c1.344,0,2.434-1.09,2.434-2.434S14.082,47.149,12.737,47.149z"/>
	<path fill="#231815" d="M12.737,71.928v4.867c1.344,0,2.434-1.09,2.434-2.434C15.171,73.017,14.082,71.928,12.737,71.928z"/>
	<path fill="#231815" d="M12.737,82.4v4.867c1.344,0,2.434-1.09,2.434-2.434C15.171,83.489,14.082,82.4,12.737,82.4z"/>
	<path fill="#231815" d="M87.268,22.548v4.867c-1.344,0-2.434-1.09-2.434-2.434C84.834,23.637,85.924,22.548,87.268,22.548z"/>
	<path fill="#231815" d="M87.268,47.149v4.867c-1.344,0-2.434-1.09-2.434-2.434S85.924,47.149,87.268,47.149z"/>
	<path fill="#231815" d="M87.268,71.928v4.867c-1.344,0-2.434-1.09-2.434-2.434C84.834,73.017,85.924,71.928,87.268,71.928z"/>
	<path fill="#231815" d="M87.268,82.4v4.867c-1.344,0-2.434-1.09-2.434-2.434C84.834,83.489,85.924,82.4,87.268,82.4z"/>
	<path fill="#231815" d="M39.397,12.791H34.53c0,1.345,1.09,2.434,2.434,2.434C38.308,15.225,39.397,14.136,39.397,12.791z"/>
	<path fill="#231815" d="M17.599,12.791h-4.867c0,1.345,1.09,2.434,2.434,2.434C16.51,15.225,17.599,14.136,17.599,12.791z"/>
	<path fill="#231815" d="M87.268,12.791H82.4c0,1.345,1.09,2.434,2.434,2.434S87.268,14.136,87.268,12.791z"/>
	<path fill="#231815" d="M63.822,12.791h-4.867c0,1.345,1.09,2.434,2.434,2.434S63.822,14.136,63.822,12.791z"/>
</g>
</svg>
